# File created by Blade
# Date/Time:  Thu Sep 25 15:55:53 2014
# Frame Rate: 120.000 fps
#------------------------------------------------------
:FULLY-SPECIFIED
:DEGREES
189
root -3.459498 31.561018 -7.016452 17.241047 1.882961 -0.216332
Spine -12.734648 -3.957345 3.273454
Head -18.897822 -0.584594 10.345114
LeftShoulder -2.484752 18.606026 22.077667
LeftArm 48.048481 15.516882 -51.975167
LeftForeArm 24.218689 -0.000000 55.204521
LeftHand -29.163810 0.000000 3.412888
LeftHandThumb1 -26.253704 0.000000 33.147579
RightShoulder -16.097889 3.887499 -25.427162
RightArm -28.149166 -0.549213 74.017879
RightForeArm -21.956092 -0.000000 18.145060
RightHand -3.614164 -0.000000 -7.838909
RightHandThumb1 -24.326973 -0.000000 -32.862282
LeftUpLeg 5.344837 11.305214 -2.967510
LeftLeg -4.461277 -0.000000 0.000000
LeftFoot -20.598338 7.727936 -27.485170
LeftToeBase -2.235463 -0.000000 0.000000
RightUpLeg -42.799922 -7.822133 10.194610
RightLeg 27.678430 -0.000000 -0.000000
RightFoot -3.877791 -7.277623 -14.001486
RightToeBase 0.582708 -0.000000 -0.000000
190
root -3.466181 31.540367 -6.819362 17.068689 1.457772 -0.114892
Spine -12.939404 -4.169163 3.426247
Head -18.645297 0.052018 10.021709
LeftShoulder -2.443823 18.864687 22.307530
LeftArm 47.589986 15.270479 -52.246102
LeftForeArm 24.040384 -0.000000 54.623023
LeftHand -29.176423 -0.000000 3.496115
LeftHandThumb1 -26.253704 0.000000 33.147579
RightShoulder -16.113643 3.863485 -25.328755
RightArm -28.118347 -0.160409 72.928448
RightForeArm -21.826542 -0.000000 18.058315
RightHand -3.611957 -0.000000 -8.006201
RightHandThumb1 -24.326973 -0.000000 -32.862282
LeftUpLeg 5.747971 11.492289 -3.054044
LeftLeg -4.132552 -0.000000 0.000000
LeftFoot -20.444836 7.865574 -27.502616
LeftToeBase -3.067897 -0.000000 0.000000
RightUpLeg -42.510072 -6.968735 9.637152
RightLeg 28.237471 -0.000000 -0.000000
RightFoot -4.418737 -7.736353 -13.693993
RightToeBase 0.666414 -0.000000 -0.000000
191
root -3.471324 31.523987 -6.617360 16.879897 0.960106 0.019674
Spine -13.141510 -4.460712 3.593064
Head -18.354624 0.808384 9.617374
LeftShoulder -2.473828 19.189402 22.493406
LeftArm 47.004982 15.044095 -52.522016
LeftForeArm 23.392173 -0.000000 53.902228
LeftHand -29.444851 -0.000000 4.026670
LeftHandThumb1 -26.253704 0.000000 33.147579
RightShoulder -16.053473 3.764940 -25.258966
RightArm -27.981737 0.446181 71.740393
RightForeArm -21.681189 -0.000000 18.130325
RightHand -3.715959 -0.000000 -7.541669
RightHandThumb1 -24.326973 -0.000000 -32.862282
LeftUpLeg 6.164712 11.582498 -3.188535
LeftLeg -3.797057 -0.000000 0.000000
LeftFoot -20.440005 8.033381 -28.021550
LeftToeBase -3.414661 -0.000000 0.000000
RightUpLeg -42.304039 -6.003862 8.978624
RightLeg 29.081842 -0.000000 -0.000000
RightFoot -4.679521 -8.556262 -14.020730
RightToeBase -0.049865 -0.000000 0.000000
192
root -3.483413 31.513072 -6.402842 16.640278 0.417866 0.083832
Spine -13.338048 -4.686258 3.813598
Head -17.993711 1.557977 9.290472
LeftShoulder -2.386186 19.488442 22.740921
LeftArm 46.193347 14.759662 -52.995992
LeftForeArm 23.209602 -0.000000 53.032754
LeftHand -29.297670 -0.000000 3.661379
LeftHandThumb1 -26.253704 0.000000 33.147579
RightShoulder -16.075175 3.654283 -25.180769
RightArm -27.749551 0.912165 70.531736
RightForeArm -21.589509 -0.000000 18.082340
RightHand -3.588566 0.000000 -7.587369
RightHandThumb1 -24.326973 -0.000000 -32.862282
LeftUpLeg 6.613296 11.643477 -3.239665
LeftLeg -3.350134 -0.000000 0.000000
LeftFoot -20.403391 8.170041 -28.587276
LeftToeBase -3.955081 -0.000000 0.000000
RightUpLeg -42.058696 -4.971161 8.364039
RightLeg 29.951885 -0.000000 -0.000000
RightFoot -5.028484 -9.033289 -13.728536
RightToeBase -0.438024 -0.000000 0.000000
193
root -3.492521 31.509043 -6.175957 16.350065 -0.135845 0.147594
Spine -13.536208 -4.881668 4.044887
Head -17.525317 2.333315 8.985718
LeftShoulder -2.270636 19.831767 22.986964
LeftArm 45.408775 14.578673 -53.483025
LeftForeArm 22.792615 -0.000000 51.877437
LeftHand -29.406187 -0.000000 3.976172
LeftHandThumb1 -26.253704 0.000000 33.147579
RightShoulder -16.200482 3.640197 -25.137761
RightArm -27.552554 1.252712 69.223134
RightForeArm -21.375320 -0.000000 18.063414
RightHand -3.450306 -0.000000 -7.932308
RightHandThumb1 -24.326973 -0.000000 -32.862282
LeftUpLeg 7.118499 11.634371 -3.270501
LeftLeg -2.883394 -0.000000 0.000000
LeftFoot -20.219299 8.338060 -29.058884
LeftToeBase -4.685856 -0.000000 0.000000
RightUpLeg -41.721025 -3.842922 7.696781
RightLeg 30.766822 -0.000000 -0.000000
RightFoot -5.442489 -9.492657 -13.288050
RightToeBase -0.574478 -0.000000 0.000000
194
root -3.507888 31.510800 -5.942172 15.990566 -0.786877 0.201583
Spine -13.685256 -5.142604 4.286072
Head -16.951016 3.307523 8.693497
LeftShoulder -2.244266 20.166976 23.142200
LeftArm 44.480917 14.377895 -53.960385
LeftForeArm 22.388260 -0.000000 50.428505
LeftHand -29.514056 -0.000000 3.767649
LeftHandThumb1 -26.253704 0.000000 33.147579
RightShoulder -16.242678 3.532360 -25.088841
RightArm -27.160127 1.594843 67.964589
RightForeArm -21.236201 -0.000000 18.119382
RightHand -3.509099 -0.000000 -8.112572
RightHandThumb1 -24.326973 -0.000000 -32.862282
LeftUpLeg 7.654531 11.654022 -3.286705
LeftLeg -2.290269 -0.000000 0.000000
LeftFoot -19.985135 8.433239 -29.704973
LeftToeBase -5.563201 -0.000000 0.000000
RightUpLeg -41.231923 -2.637524 7.027471
RightLeg 31.446563 -0.000000 -0.000000
RightFoot -5.832230 -9.870994 -12.835828
RightToeBase -0.790849 -0.000000 0.000000
